<svg width="149" height="137" viewBox="0 0 149 137" fill="none" xmlns="http://www.w3.org/2000/svg">
<g clip-path="url(#clip0_40_6)">
<rect width="149" height="137" fill="white"/>
<rect width="149" height="137" fill="#D9D9D9"/>
<rect y="47" width="149" height="44" fill="#F8F1F1"/>
<path d="M21.968 77C21.632 77 21.344 76.888 21.104 76.664C20.88 76.424 20.768 76.136 20.768 75.8C20.768 75.464 20.88 75.184 21.104 74.96C21.344 74.72 21.632 74.6 21.968 74.6H23.648V63.32H21.968C21.632 63.32 21.344 63.2 21.104 62.96C20.88 62.72 20.768 62.432 20.768 62.096C20.768 61.76 20.88 61.48 21.104 61.256C21.344 61.032 21.632 60.92 21.968 60.92H27.704C28.04 60.92 28.32 61.032 28.544 61.256C28.768 61.48 28.88 61.76 28.88 62.096C28.88 62.432 28.768 62.72 28.544 62.96C28.32 63.2 28.04 63.32 27.704 63.32H26.048V74.6H27.704C28.056 74.6 28.336 74.72 28.544 74.96C28.768 75.184 28.88 75.464 28.88 75.8C28.88 76.136 28.768 76.424 28.544 76.664C28.32 76.888 28.04 77 27.704 77H21.968ZM32.5586 77.144C32.2546 77.144 31.9826 77.032 31.7426 76.808C31.5186 76.584 31.4066 76.328 31.4066 76.04V66.296C31.4066 65.976 31.5266 65.704 31.7666 65.48C32.0066 65.256 32.2866 65.144 32.6066 65.144C32.9106 65.144 33.1666 65.256 33.3746 65.48C33.5986 65.704 33.7106 65.976 33.7106 66.296V68.12C34.1586 67.16 34.7266 66.432 35.4146 65.936C36.1026 65.424 36.8546 65.168 37.6706 65.168C38.5666 65.168 39.2786 65.376 39.8066 65.792C40.3346 66.208 40.7186 66.896 40.9586 67.856C41.1986 68.8 41.3186 70.112 41.3186 71.792L41.2946 75.992C41.2946 76.296 41.1906 76.568 40.9826 76.808C40.7746 77.032 40.5106 77.144 40.1906 77.144C39.8866 77.144 39.6146 77.032 39.3746 76.808C39.1506 76.568 39.0386 76.304 39.0386 76.016V72.032C39.0386 70.784 38.9826 69.824 38.8706 69.152C38.7586 68.48 38.5906 68.024 38.3666 67.784C38.1426 67.528 37.8386 67.4 37.4546 67.4C36.9746 67.4 36.4946 67.608 36.0146 68.024C35.5346 68.424 35.0866 69 34.6706 69.752C34.3026 70.408 34.0466 71.048 33.9026 71.672C33.7586 72.296 33.6866 73.048 33.6866 73.928V75.944C33.6866 76.296 33.5826 76.584 33.3746 76.808C33.1826 77.032 32.9106 77.144 32.5586 77.144ZM54.1445 81.392C53.8405 81.392 53.5685 81.272 53.3285 81.032C53.1045 80.808 52.9925 80.544 52.9925 80.24V66.32C52.9925 65.984 53.1045 65.704 53.3285 65.48C53.5525 65.256 53.8325 65.144 54.1685 65.144C54.4405 65.144 54.6885 65.248 54.9125 65.456C55.1525 65.664 55.2725 65.936 55.2725 66.272V66.536C56.0885 65.608 57.2885 65.144 58.8725 65.144C59.5285 65.144 60.1605 65.352 60.7685 65.768C61.3925 66.184 61.9045 66.808 62.3045 67.64C62.7045 68.456 62.9045 69.44 62.9045 70.592C62.9045 71.632 62.7445 72.632 62.4245 73.592C62.1045 74.552 61.5445 75.36 60.7445 76.016C59.9605 76.656 58.9045 76.976 57.5765 76.976C56.8085 76.976 56.0485 76.76 55.2965 76.328V80.24C55.2965 80.544 55.1765 80.808 54.9365 81.032C54.7125 81.272 54.4485 81.392 54.1445 81.392ZM57.7205 74.768C58.6485 74.768 59.3765 74.424 59.9045 73.736C60.4485 73.032 60.7205 71.984 60.7205 70.592C60.7205 69.568 60.5205 68.768 60.1205 68.192C59.7365 67.6 59.2565 67.304 58.6805 67.304C57.8645 67.304 57.1685 67.464 56.5925 67.784C56.0325 68.104 55.6005 68.464 55.2965 68.864V74.192C56.2725 74.576 57.0805 74.768 57.7205 74.768ZM66.6841 77.144C66.3801 77.144 66.1081 77.032 65.8681 76.808C65.6281 76.584 65.5081 76.328 65.5081 76.04V66.32C65.5081 66 65.6201 65.728 65.8441 65.504C66.0841 65.28 66.3641 65.168 66.6841 65.168C67.0041 65.168 67.2761 65.28 67.5001 65.504C67.7401 65.728 67.8601 66 67.8601 66.32V67.04C68.6441 65.76 69.7161 65.12 71.0761 65.12C71.8921 65.12 72.4761 65.344 72.8281 65.792C73.1961 66.24 73.3801 66.776 73.3801 67.4V68.12C73.3801 68.44 73.2681 68.712 73.0441 68.936C72.8361 69.144 72.5721 69.248 72.2521 69.248C71.8681 69.248 71.5801 69.136 71.3881 68.912C71.2121 68.688 71.1241 68.416 71.1241 68.096V67.784C71.1241 67.528 70.9481 67.4 70.5961 67.4C70.3081 67.4 69.9721 67.544 69.5881 67.832C69.2201 68.12 68.9161 68.424 68.6761 68.744C68.3401 69.16 68.1161 69.576 68.0041 69.992C67.9081 70.408 67.8601 70.904 67.8601 71.48L67.8361 76.04C67.8361 76.328 67.7161 76.584 67.4761 76.808C67.2361 77.032 66.9721 77.144 66.6841 77.144ZM79.0357 77.144C78.1237 77.144 77.2837 76.896 76.5157 76.4C75.7637 75.904 75.1717 75.232 74.7397 74.384C74.3077 73.52 74.0917 72.584 74.0917 71.576C74.0917 70.44 74.3477 69.384 74.8597 68.408C75.3717 67.416 76.0597 66.632 76.9237 66.056C77.7877 65.464 78.7157 65.168 79.7077 65.168C80.6197 65.168 81.4517 65.424 82.2037 65.936C82.9717 66.448 83.5717 67.128 84.0037 67.976C84.4517 68.824 84.6757 69.736 84.6757 70.712C84.6757 71.864 84.4197 72.936 83.9077 73.928C83.3957 74.904 82.6997 75.688 81.8197 76.28C80.9557 76.856 80.0277 77.144 79.0357 77.144ZM79.0357 74.984C79.5957 74.984 80.1317 74.792 80.6437 74.408C81.1557 74.024 81.5637 73.512 81.8677 72.872C82.1717 72.232 82.3237 71.552 82.3237 70.832C82.3237 70.224 82.2037 69.656 81.9637 69.128C81.7237 68.584 81.3957 68.152 80.9797 67.832C80.5637 67.496 80.1077 67.328 79.6117 67.328C79.0517 67.328 78.5237 67.528 78.0277 67.928C77.5477 68.312 77.1637 68.832 76.8757 69.488C76.5877 70.128 76.4437 70.816 76.4437 71.552C76.4437 72.272 76.5637 72.888 76.8037 73.4C77.0597 73.912 77.3797 74.304 77.7637 74.576C78.1637 74.848 78.5877 74.984 79.0357 74.984ZM91.7221 77.144C90.7621 77.144 89.8821 76.912 89.0821 76.448C88.2821 75.984 87.6501 75.352 87.1861 74.552C86.7221 73.736 86.4901 72.848 86.4901 71.888C86.4901 70.8 86.7461 69.736 87.2581 68.696C87.7701 67.656 88.4421 66.808 89.2741 66.152C90.1061 65.496 90.9861 65.168 91.9141 65.168C92.7621 65.168 93.4421 65.304 93.9541 65.576C94.4821 65.832 94.9941 66.248 95.4901 66.824C95.7301 67.08 95.8501 67.36 95.8501 67.664C95.8501 67.968 95.7381 68.232 95.5141 68.456C95.2901 68.664 95.0181 68.768 94.6981 68.768C94.4901 68.768 94.3221 68.736 94.1941 68.672C94.0821 68.608 93.9461 68.48 93.7861 68.288C93.5141 67.984 93.2421 67.752 92.9701 67.592C92.7141 67.432 92.3701 67.352 91.9381 67.352C91.4421 67.352 90.9381 67.568 90.4261 68C89.9301 68.432 89.5221 69 89.2021 69.704C88.8981 70.392 88.7461 71.104 88.7461 71.84C88.7461 72.48 88.8821 73.04 89.1541 73.52C89.4421 73.984 89.8101 74.344 90.2581 74.6C90.7061 74.84 91.1781 74.96 91.6741 74.96C92.3141 74.96 92.8341 74.84 93.2341 74.6C93.6501 74.36 94.0181 74.032 94.3381 73.616C94.6421 73.216 94.9861 73.016 95.3701 73.016C95.6741 73.016 95.9381 73.128 96.1621 73.352C96.3861 73.56 96.4981 73.8 96.4981 74.072C96.4981 74.392 96.4101 74.664 96.2341 74.888C95.7701 75.512 95.1381 76.048 94.3381 76.496C93.5381 76.928 92.6661 77.144 91.7221 77.144ZM103.716 77.144C102.58 77.144 101.556 76.904 100.644 76.424C99.7476 75.928 99.0436 75.232 98.5316 74.336C98.0196 73.424 97.7636 72.352 97.7636 71.12C97.7636 70.112 97.9876 69.152 98.4356 68.24C98.8996 67.312 99.5396 66.568 100.356 66.008C101.188 65.448 102.132 65.168 103.188 65.168C104.164 65.168 104.996 65.368 105.684 65.768C106.388 66.152 106.916 66.616 107.268 67.16C107.62 67.704 107.796 68.192 107.796 68.624C107.796 68.832 107.732 69.032 107.604 69.224C107.476 69.416 107.292 69.584 107.052 69.728L100.62 73.424C100.844 73.92 101.236 74.304 101.796 74.576C102.372 74.848 103.012 74.984 103.716 74.984C104.644 74.984 105.436 74.64 106.092 73.952C106.348 73.696 106.612 73.568 106.884 73.568C107.204 73.568 107.468 73.672 107.676 73.88C107.9 74.088 108.012 74.344 108.012 74.648C108.012 74.904 107.916 75.144 107.724 75.368C107.276 75.864 106.676 76.288 105.924 76.64C105.188 76.976 104.452 77.144 103.716 77.144ZM105.42 68.336C105.228 68 104.956 67.752 104.604 67.592C104.252 67.416 103.836 67.328 103.356 67.328C102.444 67.328 101.676 67.64 101.052 68.264C100.444 68.888 100.092 69.656 99.9956 70.568C99.9636 70.808 99.9476 71.096 99.9476 71.432L105.42 68.336ZM113.777 77.144C112.849 77.144 112.041 76.944 111.353 76.544C110.681 76.128 110.161 75.656 109.793 75.128C109.441 74.584 109.265 74.144 109.265 73.808C109.265 73.488 109.377 73.224 109.601 73.016C109.825 72.792 110.089 72.68 110.393 72.68C110.665 72.68 110.889 72.752 111.065 72.896C111.257 73.04 111.393 73.232 111.473 73.472C111.649 73.968 111.937 74.36 112.337 74.648C112.737 74.936 113.233 75.08 113.825 75.08C114.449 75.08 114.937 74.928 115.289 74.624C115.641 74.32 115.817 73.976 115.817 73.592C115.817 73.224 115.665 72.936 115.361 72.728C115.073 72.504 114.481 72.256 113.585 71.984C112.273 71.584 111.329 71.112 110.753 70.568C110.177 70.008 109.889 69.28 109.889 68.384C109.889 67.44 110.265 66.672 111.017 66.08C111.769 65.472 112.817 65.168 114.161 65.168C115.409 65.168 116.377 65.44 117.065 65.984C117.769 66.528 118.121 67.256 118.121 68.168C118.121 68.664 118.017 69.048 117.809 69.32C117.601 69.576 117.305 69.704 116.921 69.704C116.585 69.704 116.313 69.6 116.105 69.392C115.897 69.184 115.793 68.96 115.793 68.72C115.793 68.64 115.809 68.544 115.841 68.432C115.889 68.304 115.913 68.208 115.913 68.144C115.913 67.856 115.769 67.624 115.481 67.448C115.209 67.272 114.785 67.184 114.209 67.184C113.489 67.184 112.953 67.288 112.601 67.496C112.265 67.704 112.097 67.984 112.097 68.336C112.097 68.704 112.273 69.008 112.625 69.248C112.977 69.472 113.609 69.728 114.521 70.016C115.849 70.432 116.769 70.888 117.281 71.384C117.809 71.88 118.073 72.576 118.073 73.472C118.073 74.08 117.889 74.672 117.521 75.248C117.169 75.808 116.665 76.264 116.009 76.616C115.369 76.968 114.625 77.144 113.777 77.144ZM123.972 77.144C123.044 77.144 122.236 76.944 121.548 76.544C120.876 76.128 120.356 75.656 119.988 75.128C119.636 74.584 119.46 74.144 119.46 73.808C119.46 73.488 119.572 73.224 119.796 73.016C120.02 72.792 120.284 72.68 120.588 72.68C120.86 72.68 121.084 72.752 121.26 72.896C121.452 73.04 121.588 73.232 121.668 73.472C121.844 73.968 122.132 74.36 122.532 74.648C122.932 74.936 123.428 75.08 124.02 75.08C124.644 75.08 125.132 74.928 125.484 74.624C125.836 74.32 126.012 73.976 126.012 73.592C126.012 73.224 125.86 72.936 125.556 72.728C125.268 72.504 124.676 72.256 123.78 71.984C122.468 71.584 121.524 71.112 120.948 70.568C120.372 70.008 120.084 69.28 120.084 68.384C120.084 67.44 120.46 66.672 121.212 66.08C121.964 65.472 123.012 65.168 124.356 65.168C125.604 65.168 126.572 65.44 127.26 65.984C127.964 66.528 128.316 67.256 128.316 68.168C128.316 68.664 128.212 69.048 128.004 69.32C127.796 69.576 127.5 69.704 127.116 69.704C126.78 69.704 126.508 69.6 126.3 69.392C126.092 69.184 125.988 68.96 125.988 68.72C125.988 68.64 126.004 68.544 126.036 68.432C126.084 68.304 126.108 68.208 126.108 68.144C126.108 67.856 125.964 67.624 125.676 67.448C125.404 67.272 124.98 67.184 124.404 67.184C123.684 67.184 123.148 67.288 122.796 67.496C122.46 67.704 122.292 67.984 122.292 68.336C122.292 68.704 122.468 69.008 122.82 69.248C123.172 69.472 123.804 69.728 124.716 70.016C126.044 70.432 126.964 70.888 127.476 71.384C128.004 71.88 128.268 72.576 128.268 73.472C128.268 74.08 128.084 74.672 127.716 75.248C127.364 75.808 126.86 76.264 126.204 76.616C125.564 76.968 124.82 77.144 123.972 77.144Z" fill="black"/>
</g>
<defs>
<clipPath id="clip0_40_6">
<rect width="149" height="137" fill="white"/>
</clipPath>
</defs>
</svg>
